# xmcd CD database file
#
# Track frame offsets:
#	150
#	15222
#	30722
#	44005
#	59150
#	72440
#	83192
#	96297
#	108275
#	121550
#	136702
#	151415
#	165832
#	179050
#	194587
#	207792
#	221245
#	235752
#	249672
#	263525
#	274505
#	289400
#	302577
#	317147
#	332137
#
# Disc length: 4599 seconds
#
# Revision: 2
# Processed by: cddbd v1.5.2PL0 Copyright (c) Steve Scherf et al.
# Submitted via: CDex 1.70beta2
#
DISCID=6911f519
DTITLE=Day , Doris - Ballads And Love Songs (1947 to 1951) - Ballads And Love Songs (1947 to 1951)
DYEAR=2002
DGENRE=Blues
TTITLE0=Darn That Dream (Delange-Van Heusen) (5-1950)
TTITLE1=If I Could Be With You (One Hour Tonight) (Creamer-Johnson) (3-1949)
TTITLE2=It Takes Time (Korb) ((2-1947)
TTITLE3=I've Forgotten You (pola-Wyle) (5-1950)
TTITLE4=My Young And Foolish Heart (Tobias-Lewis-Murray) (2-1947)
TTITLE5=Everywhere You Go (Fisher-Goodwin-Shay) (3-1949)
TTITLE6=The Three Rivers (Webster-Carmichael) (9-1949)
TTITLE7=It's So Laughable (MacDonald-Hoffman) (2-1951)
TTITLE8=When Tonight Is Just A Memory (Benjamin-Weiss) (6-1947)
TTITLE9=With You Anywhere You Are (Palmer) (11-1949)
TTITLE10=Land Of Love (Come My Love And Live With Me) (Ahbez) (6-1949)
TTITLE11=(with Buddy Clark) I'll String Along With You (Dubin-Warren) (12-1948)
TTITLE12=Got Him Off My Hands (But Can't Get Him Off  My Mind) (Young-Lewis-Phillips) (8-1951)
TTITLE13=I Can't Get Over A Boy Like You (Loving Girl Like Me) (Ruskin-Broones) (5-1950)
TTITLE14=You're My Thrill (Clare-Gorney) (5-1949)
TTITLE15=A Chocolate Sundae On A Saturday Night (David-Frisch-Wise) (6-1947)
TTITLE16=You Love Me (Cahn-Styne) (9-1950)
TTITLE17=I'm Beginning To Miss You (Berlin) (12-1948)
TTITLE18=Just Imagine (Brown-Henderson-DeSylva) (11-1947)
TTITLE19=(Where Are You) Now That I Need You (Loesser) (3-1949)
TTITLE20=It's The Sentimental Thing To Do (Fisher-Alfred) (12-1947)
TTITLE21=Why Should We Both Be Lonely(Loeb) (9-1947)
TTITLE22=It's On The Tip Of My Tongue (Adlam-Miller) (7-1949)
TTITLE23=The Last Mile Home (Kent-Farrar) (6-1949)
TTITLE24=You Go To My Head (Gillespie-Coots) (3-1949)
EXTD=YEAR: 2002
EXTT0=
EXTT1=
EXTT2=
EXTT3=
EXTT4=
EXTT5=
EXTT6=
EXTT7=
EXTT8=
EXTT9=
EXTT10=
EXTT11=
EXTT12=
EXTT13=
EXTT14=
EXTT15=
EXTT16=
EXTT17=
EXTT18=
EXTT19=
EXTT20=
EXTT21=
EXTT22=
EXTT23=
EXTT24=
PLAYORDER=
